Coordinates
version=1
nRows=15
nColumns=42
inDegrees=yes

Units are S.I. units (second, meters, Newtons, ...)
If the header above contains a line with 'inDegrees', this indicates whether rotational values are in degrees (yes) or radians (no).

endheader
time	pelvis_tilt	pelvis_list	pelvis_rotation	pelvis_tx	pelvis_ty	pelvis_tz	hip_flexion_r	hip_adduction_r	hip_rotation_r	knee_angle_r	knee_adduction_r	knee_angle_r_beta	ankle_angle_r	subtalar_angle_r	mtp_angle_r	hip_flexion_l	hip_adduction_l	hip_rotation_l	knee_angle_l	knee_adduction_l	knee_angle_l_beta	ankle_angle_l	subtalar_angle_l	mtp_angle_l	lumbar_extension	lumbar_bending	lumbar_rotation	arm_flex_r	arm_add_r	arm_rot_r	elbow_flex_r	pro_sup_r	wrist_flex_r	wrist_dev_r	arm_flex_l	arm_add_l	arm_rot_l	elbow_flex_l	pro_sup_l	wrist_flex_l	wrist_dev_l
      2.37000000	      0.73098785	     -1.86530611	     -7.63648836	      0.39286757	      0.89936385	     -0.04823624	    -16.78492633	      0.22622538	     -4.80332428	     10.52432932	      3.97542757	      0.18368420	     16.81704830	      5.98244809	     -7.50038375	     22.96631657	     -3.97993076	     -6.49189391	      6.86202328	      4.34823472	      0.11976490	    -11.38525662	    -17.60994479	     -7.50038375	    -14.01027738	      0.56278415	      3.87921590	      2.02880201	    -20.57236344	      3.27166423	     52.20695810	     90.00000001	      0.00000000	      0.00000000	    -15.65197477	     -6.82849477	    -19.02809043	     21.10203040	     90.00000001	      0.00000000	      0.00000000
      2.38000000	      0.60741360	     -1.77124564	     -7.67189816	      0.40507784	      0.89853708	     -0.04885418	    -17.20668703	     -0.13179515	     -3.95960364	     10.98182611	      4.17568982	      0.19166902	     16.02263063	      4.70111500	     -7.50036013	     23.27817306	     -3.79068340	     -5.45996323	      8.19873606	      4.46216273	      0.14309494	    -12.35583834	    -18.06751072	     -7.50036013	    -13.86008534	      0.35071746	      3.96202786	      1.72414878	    -20.39539691	      2.96511078	     51.68125190	     90.00000001	      0.00000000	      0.00000000	    -15.22219638	     -6.86388970	    -19.15905100	     20.82714646	     90.00000001	      0.00000000	      0.00000000
      2.39000000	      0.49598310	     -1.62816631	     -7.69776882	      0.41748978	      0.89811479	     -0.04955375	    -17.48721214	     -0.56881012	     -3.55943097	     11.70432061	      4.33597461	      0.20427893	     15.24581471	      4.32558070	     -7.50035360	     23.59976521	     -3.60325632	     -4.61632475	      9.72734962	      4.65956600	      0.16977428	    -13.05734683	    -18.32171612	     -7.50035360	    -13.69650402	      0.08861948	      4.04253153	      1.29915223	    -20.28655177	      2.92866790	     51.22470394	     90.00000001	      0.00000000	      0.00000000	    -14.89109351	     -6.92188913	    -19.12679601	     20.86450961	     90.00000001	      0.00000000	      0.00000000
      2.40000000	      0.37151940	     -1.48634421	     -7.70560895	      0.42994728	      0.89822656	     -0.05017693	    -17.65554664	     -0.97097025	     -2.77359968	     12.57652948	      4.57477457	      0.21950185	     13.74018832	      2.80891561	     -7.50034293	     23.83860412	     -3.47566889	     -3.60641922	     11.14145686	      4.97351046	      0.19445511	    -13.80419929	    -18.60062182	     -7.50034293	    -13.51037563	     -0.20418394	      4.08859463	      1.01976402	    -19.97783170	      2.70390501	     50.24826987	     90.00000001	      0.00000000	      0.00000000	    -14.36498679	     -7.00159114	    -19.04347227	     20.57841444	     90.00000001	      0.00000000	      0.00000000
      2.41000000	      0.33981724	     -1.35183125	     -7.69053940	      0.44261606	      0.89891552	     -0.05099877	    -17.87762332	     -1.39036595	     -1.63746575	     13.45914882	      4.93137260	      0.23490646	     11.91602212	      0.56571683	     -7.50033064	     23.88224122	     -3.36619578	     -2.74478962	     12.52018931	      5.37059622	      0.21851853	    -13.96504670	    -18.75052231	     -7.50033064	    -13.42375200	     -0.45779902	      4.10864299	      0.70304781	    -19.67800840	      2.45255277	     49.12386149	     90.00000001	      0.00000000	      0.00000000	    -13.78929865	     -7.00997922	    -19.01781529	     20.35437067	     90.00000001	      0.00000000	      0.00000000
      2.42000000	      0.30549360	     -1.28078224	     -7.67441689	      0.45538104	      0.90013262	     -0.05174708	    -18.11184939	     -1.69435787	      0.53423251	     14.22401466	      5.47043471	      0.24825589	      9.28801173	     -3.91030885	     -7.50030339	     23.77572681	     -3.37748334	     -2.00050480	     13.71012210	      5.84627593	      0.23928677	    -13.86342590	    -18.88470336	     -7.50030339	    -13.29877764	     -0.67130619	      4.16110886	      0.41196573	    -19.25715957	      2.15261517	     47.84712489	     90.00000001	      0.00000000	      0.00000000	    -13.13060889	     -7.07305657	    -19.24852362	     20.12483809	     90.00000001	      0.00000000	      0.00000000
      2.43000000	      0.40129634	     -1.17131825	     -7.62291742	      0.46826726	      0.90174450	     -0.05271726	    -18.03454027	     -2.15347991	      0.94564897	     15.80484237	      5.85600590	      0.27584654	      7.83837141	     -4.18726226	     -7.50029973	     23.39137190	     -3.31982328	     -1.42126191	     14.71705652	      6.34896010	      0.25686109	    -13.49093018	    -19.00628383	     -7.50029973	    -13.32270005	     -0.88427108	      4.21047982	     -0.19624542	    -19.12788429	      2.23554044	     47.27386467	     90.00000001	      0.00000000	      0.00000000	    -12.60146538	     -7.12092928	    -19.19820242	     20.39343950	     90.00000001	      0.00000000	      0.00000000
      2.44000000	      0.33321994	     -1.20709065	     -7.47665374	      0.48118344	      0.90383004	     -0.05355145	    -17.86507250	     -2.24297058	      3.00640496	     17.09946567	      6.44818935	      0.29844198	      3.68533937	     -9.79795977	     -7.50027745	     22.99156759	     -3.42917005	     -0.98705065	     15.42856292	      6.83917284	      0.26927922	    -12.82994044	    -19.02218138	     -7.50027745	    -13.12948630	     -0.95971640	      4.03999620	     -0.22969135	    -18.54661491	      2.05063804	     45.06863002	     90.00000001	      0.00000000	      0.00000000	    -11.95004899	     -7.12592234	    -19.11140510	     20.07964139	     90.00000001	      0.00000000	      0.00000000
      2.45000000	      0.34973129	     -1.19778384	     -7.27974616	      0.49409870	      0.90609901	     -0.05456158	    -17.30041612	     -2.43473943	      3.29066640	     19.26682214	      6.76672646	      0.33626948	      1.24356502	    -10.97465993	     -7.50027238	     22.33872699	     -3.43678967	     -0.73577146	     15.87134962	      7.28352001	      0.27700731	    -12.00876680	    -19.03042442	     -7.50027238	    -13.04756779	     -1.04806176	      3.89097262	     -0.92633442	    -18.31664439	      2.13970026	     44.33555241	     90.00000001	      0.00000000	      0.00000000	    -11.38829387	     -7.14170066	    -19.08136395	     20.33829157	     90.00000001	      0.00000000	      0.00000000
      2.46000000	      0.35401679	     -1.24138471	     -7.09150934	      0.50684020	      0.90867837	     -0.05558274	    -16.51495910	     -2.54578632	      3.86021338	     21.68446276	      7.16165941	      0.37846527	     -1.65496561	    -13.03834955	     -7.50026676	     21.52031006	     -3.47032186	     -0.57772275	     16.00721362	      7.63845680	      0.27937858	    -11.16014233	    -19.02028061	     -7.50026676	    -12.95343197	     -1.06524535	      3.74277871	     -1.40797416	    -17.98273309	      2.23154609	     43.14528216	     90.00000001	      0.00000000	      0.00000000	    -10.79927174	     -7.18369605	    -18.97406993	     20.58391749	     90.00000001	      0.00000000	      0.00000000
      2.47000000	      0.41574571	     -1.38626191	     -6.86280696	      0.51942334	      0.91156154	     -0.05659176	    -15.69324360	     -2.49562465	      4.96621787	     24.13815526	      7.74610437	      0.42129028	     -4.73589179	    -15.95828893	     -7.50025775	     20.49354496	     -3.58586328	     -0.54076501	     15.89101406	      7.96153285	      0.27735052	    -10.49309506	    -18.99787664	     -7.50025775	    -12.95302344	     -0.96925729	      3.43856570	     -1.63514550	    -17.58638436	      2.23380094	     41.61629270	     90.00000001	      0.00000000	      0.00000000	    -10.24040124	     -7.17633456	    -18.74874921	     20.92747372	     90.00000001	      0.00000000	      0.00000000
      2.48000000	      0.45900639	     -1.47177911	     -6.63957345	      0.53186367	      0.91441262	     -0.05762837	    -14.53597504	     -2.50405927	      5.38715822	     27.07974429	      8.16718649	      0.47263070	     -6.73827717	    -17.01635978	     -7.50025299	     19.36515636	     -3.57756134	     -0.62143584	     15.52544156	      8.13305331	      0.27097007	     -9.81446784	    -18.93676277	     -7.50025299	    -12.91919983	     -0.92213405	      3.22054146	     -2.18041770	    -17.29347287	      2.28007581	     40.64898023	     90.00000001	      0.00000000	      0.00000000	     -9.62842403	     -7.20262051	    -18.57506587	     21.36870027	     90.00000001	      0.00000000	      0.00000000
      2.49000000	      0.49996908	     -1.59907651	     -6.36915688	      0.54413552	      0.91726367	     -0.05862289	    -13.17429135	     -2.40899225	      5.50781921	     30.28441525	      8.44711347	      0.52856276	     -8.50624070	    -17.77915085	     -7.50024827	     18.17774099	     -3.58199261	     -0.72874904	     15.02728405	      8.23656567	      0.26227558	     -9.22514119	    -18.85746220	     -7.50024827	    -12.89833780	     -0.83089404	      2.88182302	     -2.64307411	    -16.94242890	      2.31790830	     39.58100704	     90.00000001	      0.00000000	      0.00000000	     -9.05286727	     -7.25290168	    -18.33803558	     21.89809126	     90.00000001	      0.00000000	      0.00000000
      2.50000000	      0.57312887	     -1.72980162	     -6.17114490	      0.55626177	      0.92011390	     -0.05957308	    -11.71831229	     -2.31379803	      5.68164269	     33.56285941	      8.73068498	      0.58578240	     -9.57617521	    -18.20894904	     -7.50024563	     16.86032061	     -3.59231640	     -0.93819759	     14.34925354	      8.30289421	      0.25044172	     -8.69429412	    -18.76523699	     -7.50024563	    -12.90973597	     -0.72744309	      2.59431774	     -3.19679516	    -16.66052308	      2.36165765	     38.75681477	     90.00000001	      0.00000000	      0.00000000	     -8.41123418	     -7.29042652	    -18.14822334	     22.44065831	     90.00000001	      0.00000000	      0.00000000
      2.51000000	      0.55809804	     -1.84857687	     -5.82423982	      0.56813353	      0.92274706	     -0.06052522	     -9.98825958	     -2.16545873	      5.20266735	     37.03206935	      8.73097200	      0.64633154	    -10.41982475	    -18.44615157	     -7.50024113	     15.71346184	     -3.52285934	     -0.98640987	     13.71840723	      8.24722249	      0.23943137	     -8.18897853	    -18.61880007	     -7.50024113	    -12.83834252	     -0.63848833	      2.14905376	     -3.73309252	    -16.27267654	      2.38535940	     37.81578320	     90.00000001	      0.00000000	      0.00000000	     -7.85697325	     -7.41444520	    -17.84150335	     23.17288763	     90.00000001	      0.00000000	      0.00000000
